# xmcd CD database file generated by GCD 2.92
#
# Track frame offsets:
#       150
#       24532
#       45677
#       78847
#       95420
#       117752
#       131330
#       150085
#       169970
#       187370
#       203067
#       217442
#       237272
#       253477
#       276342
#       295315
#       307607
#
# Disc length: 4532 seconds
#
# Revision: 3
# Processed by: cddbd v1.4b41PL1 Copyright (c) Steve Scherf et al.
# Submitted via: GCD 2.92
#
DISCID=f511b211
DTITLE=Eric Clapton - Very Best - Blues and Ballads
DYEAR=1900
DGENRE=
TTITLE0=My Father's Eyes
TTITLE1=Born in Time
TTITLE2=River of Tears
TTITLE3=Wonderful Tonight
TTITLE4=Promises
TTITLE5=Lala
TTITLE6=I Can't Stand It
TTITLE7=Knockin' on Heavens Door
TTITLE8=Lay Down Sally
TTITLE9=Sweet Low Sweet Chariot
TTITLE10=After Midnight
TTITLE11=I Shot the Sheriff
TTITLE12=Cocaine
TTITLE13=Bell Bottom Blues
TTITLE14=Sunshine of Your Love
TTITLE15=Badge
TTITLE16=Layla
EXTD=
EXTT0=
EXTT1=
EXTT2=
EXTT3=
EXTT4=
EXTT5=
EXTT6=
EXTT7=
EXTT8=
EXTT9=
EXTT10=
EXTT11=
EXTT12=
EXTT13=
EXTT14=
EXTT15=
EXTT16=
PLAYORDER=
